<svg width="30" height="40" viewBox="0 0 30 40" fill="none" xmlns="http://www.w3.org/2000/svg">
<path d="M15 0C6.714 0 0 5.57598 0 12.4828C0 24.4253 15 40 15 40C15 40 30 24.4228 30 12.4828C30 5.57849 23.286 0 15 0ZM15 19.3896C12.8517 19.3896 10.7915 18.678 9.27244 17.4114C7.75339 16.1447 6.9 14.4267 6.9 12.6354C6.9 10.8441 7.75339 9.1261 9.27244 7.85944C10.7915 6.59278 12.8517 5.88118 15 5.88118C17.1483 5.88118 19.2085 6.59278 20.7276 7.85944C22.2466 9.1261 23.1 10.8441 23.1 12.6354C23.1 14.4267 22.2466 16.1447 20.7276 17.4114C19.2085 18.678 17.1483 19.3896 15 19.3896Z" fill="#FF7A00"/>
</svg>
