<svg width="30" height="32" viewBox="0 0 30 32" fill="none" xmlns="http://www.w3.org/2000/svg">
<path d="M28.7605 23.6837L25.7651 20.4887C25.2229 19.9108 24.5439 19.5006 23.8004 19.302C23.0569 19.1033 22.2768 19.1237 21.5433 19.3609C20.8098 19.598 20.1504 20.0431 19.6354 20.6486C19.1205 21.2541 18.7692 21.9974 18.6192 22.7991C13.6796 21.8139 8.87543 16.7106 8.5764 12.1492C9.41615 11.9844 10.189 11.5509 10.7921 10.9063C11.5863 10.0591 12.0324 8.91014 12.0324 7.71213C12.0324 6.51412 11.5863 5.36517 10.7921 4.51799L7.79755 1.32293C7.0033 0.475868 5.92613 0 4.80297 0C3.6798 0 2.60263 0.475868 1.80838 1.32293C-7.17623 10.9063 19.7759 39.6544 28.7605 30.0711C29.5542 29.2239 30 28.0751 30 26.8774C30 25.6797 29.5542 24.531 28.7605 23.6837Z" fill="#FF7A00"/>
</svg>
