<svg width="44" height="40" viewBox="0 0 44 40" fill="none" xmlns="http://www.w3.org/2000/svg">
<path fill-rule="evenodd" clip-rule="evenodd" d="M22.0821 0C10.1966 0 0.561523 8.81269 0.561523 19.6837C0.561523 30.5547 10.1966 39.3674 22.0821 39.3674C33.9676 39.3674 43.6027 30.5547 43.6027 19.6837C43.6027 8.81269 33.9676 0 22.0821 0ZM17.3507 9.24928C18.575 9.19832 18.9662 9.18585 22.0833 9.18585H22.0798C25.1979 9.18585 25.5877 9.19832 26.812 9.24928C28.0339 9.30046 28.8684 9.47739 29.6001 9.737C30.3557 10.0049 30.9942 10.3636 31.6326 10.9476C32.2711 11.5311 32.6632 12.1168 32.9573 12.8073C33.2395 13.4748 33.4332 14.2376 33.4906 15.3552C33.5456 16.475 33.5599 16.8328 33.5599 19.6839C33.5599 22.535 33.5456 22.892 33.4906 24.0118C33.4332 25.1289 33.2395 25.892 32.9573 26.5597C32.6632 27.25 32.2711 27.8357 31.6326 28.4192C30.9949 29.0032 30.3555 29.3627 29.6008 29.6309C28.8705 29.8905 28.0355 30.0674 26.8136 30.1186C25.5893 30.1695 25.1993 30.182 22.0819 30.182C18.965 30.182 18.574 30.1695 17.3497 30.1186C16.1281 30.0674 15.2938 29.8905 14.5635 29.6309C13.8091 29.3627 13.1687 29.0032 12.531 28.4192C11.8928 27.8357 11.5006 27.25 11.2072 26.5595C10.9236 25.892 10.7302 25.1292 10.674 24.0115C10.6185 22.8918 10.6046 22.535 10.6046 19.6839C10.6046 16.8328 10.619 16.4748 10.6737 15.355C10.7287 14.2378 10.9224 13.4748 11.207 12.807C11.5011 12.1168 11.8932 11.5311 12.5317 10.9476C13.1697 10.3638 13.81 10.0051 14.5649 9.737C15.2947 9.47739 16.1288 9.30046 17.3507 9.24928Z" fill="#529138"/>
<path fill-rule="evenodd" clip-rule="evenodd" d="M21.0536 11.0768C21.2535 11.0766 21.4686 11.0766 21.7007 11.0767L22.0832 11.0768C25.1478 11.0768 25.511 11.0869 26.7212 11.1372C27.8403 11.184 28.4476 11.355 28.8522 11.4987C29.3879 11.689 29.7697 11.9165 30.1712 12.2839C30.5729 12.6513 30.8216 13.0013 31.0301 13.4912C31.1872 13.8608 31.3745 14.4163 31.4254 15.4399C31.4804 16.5466 31.4923 16.879 31.4923 19.6807C31.4923 22.4824 31.4804 22.8148 31.4254 23.9215C31.3742 24.945 31.1872 25.5005 31.0301 25.8702C30.8221 26.3601 30.5729 26.7089 30.1712 27.0761C29.7695 27.4436 29.3881 27.671 28.8522 27.8613C28.4481 28.0057 27.8403 28.1762 26.7212 28.2231C25.5112 28.2734 25.1478 28.2843 22.0832 28.2843C19.0184 28.2843 18.6552 28.2734 17.4452 28.2231C16.3262 28.1758 15.7188 28.0048 15.314 27.8611C14.7783 27.6708 14.3957 27.4433 13.994 27.0759C13.5923 26.7085 13.3436 26.3594 13.1351 25.8693C12.978 25.4997 12.7908 24.9442 12.7398 23.9206C12.6848 22.8139 12.6738 22.4815 12.6738 19.6781C12.6738 16.8746 12.6848 16.5439 12.7398 15.4373C12.791 14.4137 12.978 13.8582 13.1351 13.4881C13.3431 12.9982 13.5923 12.6483 13.994 12.2808C14.3957 11.9134 14.7783 11.686 15.314 11.4952C15.7185 11.3509 16.3262 11.1803 17.4452 11.1333C18.5041 11.0895 18.9144 11.0764 21.0536 11.0742V11.0768ZM28.2097 12.8199C27.4493 12.8199 26.8324 13.3835 26.8324 14.0793C26.8324 14.7748 27.4493 15.339 28.2097 15.339C28.9701 15.339 29.587 14.7748 29.587 14.0793C29.587 13.3838 28.9701 12.8195 28.2097 12.8195V12.8199ZM16.1889 19.6817C16.1889 16.7045 18.828 14.2907 22.083 14.2905C25.3382 14.2905 27.9766 16.7044 27.9766 19.6817C27.9766 22.659 25.3384 25.0718 22.0832 25.0718C18.8281 25.0718 16.1889 22.659 16.1889 19.6817Z" fill="#529138"/>
<path fill-rule="evenodd" clip-rule="evenodd" d="M22.0828 16.1836C24.1956 16.1836 25.9087 17.7502 25.9087 19.683C25.9087 21.6155 24.1956 23.1823 22.0828 23.1823C19.9697 23.1823 18.2568 21.6155 18.2568 19.683C18.2568 17.7502 19.9697 16.1836 22.0828 16.1836V16.1836Z" fill="#529138"/>
</svg>
