<svg width="44" height="40" viewBox="0 0 44 40" fill="none" xmlns="http://www.w3.org/2000/svg">
<path fill-rule="evenodd" clip-rule="evenodd" d="M21.6446 0C9.75912 0 0.124023 8.81269 0.124023 19.6837C0.124023 30.5547 9.75912 39.3674 21.6446 39.3674C33.5301 39.3674 43.1652 30.5547 43.1652 19.6837C43.1652 8.81269 33.5301 0 21.6446 0ZM21.0452 16.6797L21.0001 15.9986C20.8646 14.2333 22.0538 12.6209 23.9354 11.9954C24.6279 11.773 25.802 11.7452 26.5697 11.9398C26.8708 12.0232 27.4428 12.3012 27.8493 12.5514L28.5869 13.0101L29.3997 12.7738C29.8513 12.6487 30.4535 12.4402 30.7244 12.3012C30.9803 12.1761 31.2061 12.1066 31.2061 12.1483C31.2061 12.3846 30.6492 13.1908 30.1825 13.6356C29.5503 14.2611 29.7309 14.3167 31.0104 13.8997C31.7782 13.6634 31.7932 13.6634 31.6427 13.9275C31.5524 14.0665 31.0857 14.553 30.589 14.9978C29.746 15.7623 29.7008 15.8457 29.7008 16.4851C29.7008 17.472 29.189 19.5292 28.6772 20.6551C27.7288 22.7679 25.6967 24.9502 23.6645 26.0483C20.8044 27.5912 16.9959 27.9804 13.7896 27.0769C12.7208 26.7711 10.8843 25.9927 10.8843 25.8537C10.8843 25.812 11.4413 25.7564 12.1187 25.7425C13.5337 25.7147 14.9487 25.3533 16.1529 24.7139L16.9658 24.2691L16.0325 23.9772C14.7078 23.5602 13.5186 22.6011 13.2175 21.6976C13.1272 21.4057 13.1573 21.3918 14.0003 21.3918L14.8734 21.3779L14.1358 21.0582C13.2627 20.6551 12.4649 19.974 12.0735 19.279C11.7875 18.7786 11.4262 17.5137 11.5316 17.4164C11.5617 17.3747 11.8778 17.4581 12.2391 17.5693C13.2778 17.9168 13.4132 17.8334 12.8111 17.2496C11.6821 16.1932 11.3359 14.6225 11.8778 13.1352L12.1337 12.468L13.1272 13.3715C15.1594 15.1924 17.5529 16.2766 20.2926 16.5963L21.0452 16.6797Z" fill="#529138"/>
</svg>
