<svg width="44" height="40" viewBox="0 0 44 40" fill="none" xmlns="http://www.w3.org/2000/svg">
<path fill-rule="evenodd" clip-rule="evenodd" d="M22.2061 0C10.3206 0 0.685547 8.81269 0.685547 19.6837C0.685547 30.5547 10.3206 39.3674 22.2061 39.3674C34.0916 39.3674 43.7267 30.5547 43.7267 19.6837C43.7267 8.81269 34.0916 0 22.2061 0ZM31.1747 12.9178C32.1624 13.1657 32.9403 13.8961 33.2043 14.8237C33.684 16.5049 33.684 20.0127 33.684 20.0127C33.684 20.0127 33.684 23.5203 33.2043 25.2016C32.9403 26.1292 32.1624 26.8596 31.1747 27.1077C29.3847 27.5581 22.2064 27.5581 22.2064 27.5581C22.2064 27.5581 15.028 27.5581 13.2379 27.1077C12.2501 26.8596 11.4723 26.1292 11.2083 25.2016C10.7287 23.5203 10.7287 20.0127 10.7287 20.0127C10.7287 20.0127 10.7287 16.5049 11.2083 14.8237C11.4723 13.8961 12.2501 13.1657 13.2379 12.9178C15.028 12.4672 22.2064 12.4672 22.2064 12.4672C22.2064 12.4672 29.3847 12.4672 31.1747 12.9178Z" fill="#529138"/>
<path fill-rule="evenodd" clip-rule="evenodd" d="M20.0537 23.6198V17.0586L25.7925 20.3393L20.0537 23.6198Z" fill="#529138"/>
</svg>
